<?xml version="1.0" standalone="no"?>
<!DOCTYPE svg PUBLIC "-//W3C//DTD SVG 20010904//EN"
 "http://www.w3.org/TR/2001/REC-SVG-20010904/DTD/svg10.dtd">
<svg version="1.0" xmlns="http://www.w3.org/2000/svg"
 width="962.000000pt" height="259.000000pt" viewBox="0 0 962.000000 259.000000"
 preserveAspectRatio="xMidYMid meet">

<g transform="translate(0.000000,259.000000) scale(0.100000,-0.100000)"
fill="#000000" stroke="none">
<path d="M1145 2575 c-201 -25 -352 -78 -528 -184 -192 -116 -366 -305 -467
-505 -33 -66 -60 -123 -60 -128 0 -4 63 -8 139 -8 l139 0 58 88 c67 101 202
240 294 300 154 101 294 151 478 173 186 22 369 -13 560 -108 l113 -56 96 95
96 96 -54 35 c-193 123 -373 185 -598 207 -122 12 -136 12 -266 -5z"/>
<path d="M2330 2272 c-51 -70 -237 -267 -305 -322 -91 -74 -128 -102 -205
-152 -256 -167 -499 -270 -814 -347 -217 -53 -320 -66 -551 -65 -201 0 -241 4
-412 39 l-31 7 -8 -68 c-9 -88 16 -310 48 -419 l23 -80 70 -8 c122 -15 456 -1
575 23 348 70 686 227 960 447 238 190 478 479 599 721 39 77 117 290 109 297
-2 2 -28 -31 -58 -73z"/>
<path d="M2870 1815 l0 -155 295 0 295 0 0 -520 0 -520 210 0 210 0 0 520 0
520 290 0 290 0 0 155 0 155 -795 0 -795 0 0 -155z"/>
<path d="M4570 1295 l0 -675 210 0 210 0 2 507 3 508 325 0 c179 0 337 -3 352
-8 40 -11 95 -63 108 -102 16 -49 -4 -109 -49 -143 l-34 -27 -321 -5 -320 -5
84 -74 c47 -41 87 -77 90 -80 3 -4 39 -37 81 -74 l76 -67 214 0 c239 0 329 14
407 63 107 69 162 213 162 427 0 270 -92 386 -335 420 -39 5 -331 10 -667 10
l-598 0 0 -675z"/>
<path d="M6300 1295 l0 -675 745 0 745 0 0 155 0 155 -535 0 -535 0 0 115 0
115 500 0 500 0 0 135 0 135 -500 0 -500 0 0 115 0 115 535 0 535 0 0 155 0
155 -745 0 -745 0 0 -675z"/>
<path d="M8177 1959 c-109 -26 -177 -94 -213 -215 -14 -45 -18 -92 -18 -194 1
-159 19 -223 84 -288 83 -82 143 -92 720 -113 179 -6 341 -15 361 -20 95 -24
127 -144 51 -195 -25 -18 -61 -19 -604 -22 l-578 -3 0 -144 0 -145 655 0 c446
0 671 4 707 11 106 23 183 75 221 151 38 75 50 154 44 288 -7 182 -49 265
-160 319 -81 40 -153 47 -607 61 -195 5 -379 15 -408 22 -64 14 -82 36 -82
100 0 55 22 82 79 98 22 6 254 10 584 10 l547 0 0 145 0 145 -672 -1 c-370 -1
-690 -5 -711 -10z"/>
<path d="M2310 1772 c-185 -282 -452 -566 -666 -711 -350 -238 -911 -395
-1349 -379 -74 3 -135 2 -135 -2 0 -17 102 -161 167 -235 l70 -80 84 2 c320 9
704 143 1023 358 147 98 229 167 372 309 146 146 218 246 329 458 66 127 178
369 172 374 -1 2 -31 -41 -67 -94z"/>
<path d="M2466 1688 c-89 -603 -382 -1070 -877 -1398 -74 -49 -322 -190 -334
-190 -2 0 -38 -16 -79 -35 -42 -19 -82 -35 -89 -36 -39 -2 42 -17 123 -23 200
-15 456 32 628 116 337 163 577 433 691 776 81 243 81 552 0 794 -17 51 -34
99 -38 106 -4 7 -15 -42 -25 -110z"/>
</g>
</svg>
