<?xml version="1.0" standalone="no"?>
<!DOCTYPE svg PUBLIC "-//W3C//DTD SVG 20010904//EN"
 "http://www.w3.org/TR/2001/REC-SVG-20010904/DTD/svg10.dtd">
<svg version="1.0" xmlns="http://www.w3.org/2000/svg"
 width="2225.000000pt" height="601.000000pt" viewBox="0 0 2225.000000 601.000000"
 preserveAspectRatio="xMidYMid meet">

<g transform="translate(0.000000,601.000000) scale(0.100000,-0.100000)"
fill="#000000" stroke="none">
<path d="M2812 5999 c-1159 -74 -2188 -826 -2605 -1906 l-17 -43 333 0 332 0
60 101 c339 569 902 996 1515 1148 183 46 303 62 505 68 452 14 890 -101 1284
-336 l105 -62 223 223 c123 123 222 227 220 233 -6 22 -240 168 -397 248 -392
201 -755 300 -1202 327 -177 11 -176 11 -356 -1z"/>
<path d="M5485 5418 c-170 -257 -450 -574 -715 -810 -244 -217 -601 -473 -885
-633 -1043 -589 -2350 -869 -3405 -729 -108 14 -405 74 -442 89 -14 5 -17 -4
-24 -62 -13 -101 -9 -473 5 -588 36 -294 129 -667 169 -679 116 -36 716 -58
976 -37 777 65 1555 328 2241 760 934 587 1784 1604 2054 2457 36 112 84 304
76 304 -1 0 -24 -33 -50 -72z"/>
<path d="M6620 4215 l0 -365 690 0 690 0 0 -1210 0 -1210 490 0 490 0 0 1210
0 1210 670 0 670 0 0 365 0 365 -1850 0 -1850 0 0 -365z"/>
<path d="M10567 4574 c-4 -4 -7 -713 -7 -1576 l0 -1568 495 0 495 0 0 1180 0
1180 748 0 c601 0 757 -3 798 -14 162 -43 284 -178 284 -314 0 -20 -8 -63 -17
-96 -14 -51 -27 -71 -77 -122 -43 -43 -79 -68 -121 -85 l-60 -24 -707 -3
c-390 -1 -708 -6 -707 -10 0 -4 174 -162 386 -351 l386 -343 496 5 c524 5 590
10 747 58 376 114 554 435 571 1026 10 358 -39 576 -170 749 -93 123 -251 214
-447 259 -219 49 -193 48 -1685 52 -771 2 -1404 1 -1408 -3z"/>
<path d="M14567 4573 c-4 -3 -7 -712 -7 -1575 l0 -1568 1730 0 1730 0 0 365 0
365 -1235 0 -1235 0 0 260 0 260 1158 2 1157 3 3 318 2 317 -1160 0 -1160 0 0
265 0 265 1235 0 1235 0 -2 363 -3 362 -1721 3 c-946 1 -1724 -1 -1727 -5z"/>
<path d="M19022 4569 c-366 -43 -564 -243 -637 -646 -39 -213 -29 -538 21
-711 59 -205 166 -333 344 -415 185 -84 290 -94 1540 -137 761 -26 765 -26
866 -78 154 -79 178 -304 42 -402 -95 -69 -2 -64 -1450 -68 l-1308 -3 0 -340
0 -340 1538 4 c1673 3 1574 0 1752 58 173 57 319 174 392 314 77 149 118 353
118 585 0 328 -78 587 -219 728 -116 117 -263 178 -478 201 -166 18 -1044 54
-1603 67 -394 8 -514 28 -577 95 -38 39 -51 81 -52 160 -1 54 4 77 27 120 24
47 37 58 92 87 44 22 89 35 140 42 44 5 592 10 1313 10 l1237 0 0 340 0 340
-1512 -1 c-832 -1 -1546 -5 -1586 -10z"/>
<path d="M5496 4361 c-323 -541 -770 -1097 -1203 -1496 -336 -311 -670 -537
-1057 -717 -760 -353 -1475 -531 -2266 -563 -143 -6 -475 6 -579 21 l-44 7 43
-79 c102 -188 261 -403 438 -593 l96 -104 171 6 c971 35 2010 472 2895 1217
162 136 539 511 634 630 273 343 567 885 872 1609 40 96 73 176 71 176 -1 1
-33 -50 -71 -114z"/>
<path d="M5721 4102 c-58 -595 -246 -1239 -505 -1737 -517 -993 -1382 -1739
-2628 -2266 -152 -64 -159 -60 137 -85 1128 -93 2163 410 2791 1357 304 460
466 982 481 1550 10 365 -34 679 -140 1009 -32 98 -106 288 -116 294 -4 3 -13
-52 -20 -122z"/>
</g>
</svg>
