<svg id="icons" height="512" viewBox="0 0 60 60" width="512" xmlns="http://www.w3.org/2000/svg"><path d="m11 38a10 10 0 0 1 -2.21-19.75.493.493 0 0 0 .38-.59 8.288 8.288 0 0 1 -.13-2.45 7.988 7.988 0 0 1 11-6.61.5.5 0 0 0 .63-.23 14.022 14.022 0 0 1 26.29 5.19.5.5 0 0 0 .48.45 12 12 0 0 1 1.55 23.82z" fill="#6ddcdd"/><path d="m49 32v-6a3 3 0 0 0 -3-3h-32a3 3 0 0 0 -3 3v6a3 3 0 0 0 3 3 3 3 0 0 0 -3 3v6a3 3 0 0 0 3 3 3 3 0 0 0 -3 3v6a3 3 0 0 0 3 3h32a3 3 0 0 0 3-3v-6a3 3 0 0 0 -3-3 3 3 0 0 0 3-3v-6a3 3 0 0 0 -3-3 3 3 0 0 0 3-3z" fill="#609dc8"/><rect fill="#4b88a9" height="12" rx="3" width="38" x="11" y="35"/><circle cx="17" cy="41" fill="#fde36e" r="2"/><circle cx="25" cy="41" fill="#6ddcdd" r="2"/><circle cx="17" cy="29" fill="#fde36e" r="2"/><circle cx="25" cy="29" fill="#6ddcdd" r="2"/><circle cx="17" cy="53" fill="#fde36e" r="2"/><circle cx="25" cy="53" fill="#6ddcdd" r="2"/><g fill="#373737"><path d="m17 38a3 3 0 1 0 3 3 3 3 0 0 0 -3-3zm0 4a1 1 0 1 1 1-1 1 1 0 0 1 -1 1z"/><path d="m25 38a3 3 0 1 0 3 3 3 3 0 0 0 -3-3zm0 4a1 1 0 1 1 1-1 1 1 0 0 1 -1 1z"/><path d="m17 26a3 3 0 1 0 3 3 3 3 0 0 0 -3-3zm0 4a1 1 0 1 1 1-1 1 1 0 0 1 -1 1z"/><path d="m25 26a3 3 0 1 0 3 3 3 3 0 0 0 -3-3zm0 4a1 1 0 1 1 1-1 1 1 0 0 1 -1 1z"/><path d="m17 56a3 3 0 1 0 -3-3 3 3 0 0 0 3 3zm0-4a1 1 0 1 1 -1 1 1 1 0 0 1 1-1z"/><path d="m25 56a3 3 0 1 0 -3-3 3 3 0 0 0 3 3zm0-4a1 1 0 1 1 -1 1 1 1 0 0 1 1-1z"/><path d="m47.905 13.032a15.023 15.023 0 0 0 -27.905-5.518 9.113 9.113 0 0 0 -4.233-.435 8.99 8.99 0 0 0 -7.725 8.037 9.346 9.346 0 0 0 .061 2.273 11.028 11.028 0 0 0 -7.189 6.211 1 1 0 1 0 1.832.8 9.014 9.014 0 0 1 6.26-5.173 1.493 1.493 0 0 0 .944-.661 1.463 1.463 0 0 0 .2-1.107 7.313 7.313 0 0 1 -.113-2.159 6.975 6.975 0 0 1 5.992-6.237 7.158 7.158 0 0 1 3.659.472 1.509 1.509 0 0 0 1.864-.691 13.022 13.022 0 0 1 24.415 4.836 1.5 1.5 0 0 0 1.438 1.329 11 11 0 0 1 2.344 21.639 3.994 3.994 0 0 0 -1.131-1.648 3.974 3.974 0 0 0 1.382-3v-6a4 4 0 0 0 -4-4h-32a4 4 0 0 0 -4 4v6a3.974 3.974 0 0 0 1.382 3 3.98 3.98 0 0 0 -1.227 1.957 9.009 9.009 0 0 1 -8.155-8.957 1 1 0 0 0 -2 0 11.01 11.01 0 0 0 10 10.949v5.051a3.974 3.974 0 0 0 1.382 3 3.974 3.974 0 0 0 -1.382 3v6a4 4 0 0 0 4 4h32a4 4 0 0 0 4-4v-6a3.974 3.974 0 0 0 -1.382-3 3.974 3.974 0 0 0 1.382-3v-5.363a12.992 12.992 0 0 0 -2.095-25.6zm-35.905 18.968v-6a2 2 0 0 1 2-2h32a2 2 0 0 1 2 2v6a2 2 0 0 1 -2 2h-32a2 2 0 0 1 -2-2zm36 18v6a2 2 0 0 1 -2 2h-32a2 2 0 0 1 -2-2v-6a2 2 0 0 1 2-2h32a2 2 0 0 1 2 2zm-34-4a2 2 0 0 1 -2-2v-6a2 2 0 0 1 2-2h32a2 2 0 0 1 2 2v6a2 2 0 0 1 -2 2z"/><path d="m25.707 11.293a1 1 0 0 0 -1.414 0l-3 3a1 1 0 0 0 0 1.414l3 3a1 1 0 0 0 1.414-1.414l-2.293-2.293 2.293-2.293a1 1 0 0 0 0-1.414z"/><path d="m34.293 18.707a1 1 0 0 0 1.414 0l3-3a1 1 0 0 0 0-1.414l-3-3a1 1 0 0 0 -1.414 1.414l2.293 2.293-2.293 2.293a1 1 0 0 0 0 1.414z"/><path d="m29 19a1 1 0 0 0 .948-.684l2-6a1 1 0 0 0 -1.9-.632l-2 6a1 1 0 0 0 .952 1.316z"/><path d="m35 38h-1a1 1 0 0 0 0 2h1a1 1 0 0 0 0-2z"/><path d="m35 42h-1a1 1 0 0 0 0 2h1a1 1 0 0 0 0-2z"/><path d="m40 38h-1a1 1 0 0 0 0 2h1a1 1 0 0 0 0-2z"/><path d="m40 42h-1a1 1 0 0 0 0 2h1a1 1 0 0 0 0-2z"/><path d="m45 38h-1a1 1 0 0 0 0 2h1a1 1 0 0 0 0-2z"/><path d="m45 42h-1a1 1 0 0 0 0 2h1a1 1 0 0 0 0-2z"/><path d="m34 52h1a1 1 0 0 0 0-2h-1a1 1 0 0 0 0 2z"/><path d="m34 56h1a1 1 0 0 0 0-2h-1a1 1 0 0 0 0 2z"/><path d="m39 52h1a1 1 0 0 0 0-2h-1a1 1 0 0 0 0 2z"/><path d="m39 56h1a1 1 0 0 0 0-2h-1a1 1 0 0 0 0 2z"/><path d="m44 52h1a1 1 0 0 0 0-2h-1a1 1 0 0 0 0 2z"/><path d="m44 56h1a1 1 0 0 0 0-2h-1a1 1 0 0 0 0 2z"/><path d="m35 26h-1a1 1 0 0 0 0 2h1a1 1 0 0 0 0-2z"/><path d="m35 30h-1a1 1 0 0 0 0 2h1a1 1 0 0 0 0-2z"/><path d="m40 26h-1a1 1 0 0 0 0 2h1a1 1 0 0 0 0-2z"/><path d="m40 30h-1a1 1 0 0 0 0 2h1a1 1 0 0 0 0-2z"/><path d="m44 28h1a1 1 0 0 0 0-2h-1a1 1 0 0 0 0 2z"/><path d="m45 30h-1a1 1 0 0 0 0 2h1a1 1 0 0 0 0-2z"/></g></svg>