<svg id="Layer_1" enable-background="new 0 0 512 512" viewBox="0 0 512 512" xmlns="http://www.w3.org/2000/svg"><g><g clip-rule="evenodd" fill-rule="evenodd"><path d="m327.3 152.7c26.6-2.7 52.6 13.2 61.5 39.7 49.6-4.5 92.3 34.5 92.3 84.2 0 45.8-36.4 83.1-81.9 84.5l-267.2.1c-46.7 0-84.6-37.9-84.6-84.6 0-34.4 20.6-64 50.1-77.2-.7-5.4-1.1-10.8-1.1-16.4 0-64.9 52.6-117.5 117.5-117.5 54.3 0 100 37 113.4 87.2z" fill="#e6e6e6"/><path d="m138.1 183.8h176.5v114.5h-176.5z" fill="#fcb13b"/><path d="m31 332h176.5v114.5h-176.5z" fill="#6abdc8"/><path d="m245.1 332h176.5v114.5h-176.5z" fill="#cc4342"/></g><path d="m277.8 365c0-3.3 2.7-6 6-6s6 2.7 6 6v48.5c0 3.3-2.7 6-6 6s-6-2.7-6-6zm99.2 0c0-3.3 2.7-6 6-6s6 2.7 6 6v48.5c0 3.3-2.7 6-6 6s-6-2.7-6-6zm-33.1 0c0-3.3 2.7-6 6-6s6 2.7 6 6v48.5c0 3.3-2.7 6-6 6s-6-2.7-6-6zm-33.1 0c0-3.3 2.7-6 6-6s6 2.7 6 6v48.5c0 3.3-2.7 6-6 6s-6-2.7-6-6zm-65.7-39h176.5c3.3 0 6 2.7 6 6v16.7c31-13.4 50.1-45.2 47.1-79.3-3.9-43.1-42.1-74.9-85.5-71.1-2.7.2-5.3-1.4-6.2-4.1-3.9-11.8-11.6-21.2-21.3-27.4-9.9-6.4-21.7-9.4-33.8-8.2-2.9.4-5.8-1.5-6.5-4.4-12.8-48.4-56.9-82.7-107.7-82.7-67.8 0-119.7 60-110.4 127 .4 2.6-1 5.2-3.5 6.3-47.2 21.1-61.3 81.3-29 121.2h136.7c3.3 0 6 2.7 6 6v23.2h25.6v-23.2c0-3.3 2.7-6 6-6zm182.5 35.6v84.9c0 3.3-2.7 6-6 6h-176.5c-3.3 0-6-2.7-6-6v-79.4h-25.6v79.4c0 3.3-2.7 6-6 6h-176.5c-3.3 0-6-2.7-6-6v-114.5c0-3.3 2.7-6 6-6h25c-29.3-45-13.2-105.7 35-130.2-7.7-72.8 49.5-136.3 122.7-136.3 54.5 0 102.1 35.7 117.9 86.9 26.4-.7 50.9 15 61.1 39.7 51-2.3 94.2 38.9 94.2 90.5.1 38.3-23.9 72.1-59.3 85zm-12-23.6h-164.5v102.5h164.5zm-351.9 27c0-3.3 2.7-6 6-6s6 2.7 6 6v48.5c0 3.3-2.7 6-6 6s-6-2.7-6-6zm99.1 0c0-3.3 2.7-6 6-6s6 2.7 6 6v48.5c0 3.3-2.7 6-6 6s-6-2.7-6-6zm-33 0c0-3.3 2.7-6 6-6s6 2.7 6 6v48.5c0 3.3-2.7 6-6 6s-6-2.7-6-6zm-33.1 0c0-3.3 2.7-6 6-6s6 2.7 6 6v48.5c0 3.3-2.7 6-6 6s-6-2.7-6-6zm104.8-27h-164.5v102.5h164.5zm-4.3-79.8c2.6 2 3.1 5.8 1.1 8.4s-5.8 3.1-8.4 1.1l-28.6-21.9c-3.2-2.5-3-7.2.1-9.6l28.5-21.8c2.6-2 6.4-1.5 8.4 1.1s1.5 6.4-1.1 8.4l-22.4 17.1zm38.4-45.1c1.6-2.9 5.3-3.9 8.2-2.2 2.9 1.6 3.9 5.3 2.2 8.2l-28.9 50c-1.6 2.9-5.3 3.8-8.2 2.2-2.9-1.7-3.8-5.3-2.2-8.2zm27.1 54.6c-2.6 2-6.4 1.5-8.4-1.1s-1.5-6.4 1.1-8.4l22.4-17.1-22.4-17.1c-2.6-2-3.1-5.8-1.1-8.4s5.8-3.1 8.4-1.1l28.5 21.8c3.1 2.4 3.3 7.1.1 9.6zm-124.6-89.9h176.5c3.3 0 6 2.7 6 6v114.5c0 3.3-2.7 6-6 6h-176.5c-3.3 0-6-2.7-6-6v-114.5c0-3.3 2.6-6 6-6zm170.5 12h-164.6v102.5h164.5v-102.5z"/></g></svg>