<svg id="Capa_1" enable-background="new 0 0 480 480" height="512" viewBox="0 0 480 480" width="512" xmlns="http://www.w3.org/2000/svg"><path d="m272 264v-48c0-4.418-3.582-8-8-8h-48c-4.418 0-8 3.582-8 8v48c0 4.418 3.582 8 8 8h48c4.418 0 8-3.582 8-8zm-16-8h-32v-32h32z"/><path d="m144 152v176c0 4.418 3.582 8 8 8h176c4.418 0 8-3.582 8-8v-176c0-4.418-3.582-8-8-8h-176c-4.418 0-8 3.582-8 8zm16 8h160v160h-160z"/><path d="m200 176h16v16h-16z"/><path d="m232 176h16v16h-16z"/><path d="m264 176h16v16h-16z"/><path d="m200 288h16v16h-16z"/><path d="m232 288h16v16h-16z"/><path d="m264 288h16v16h-16z"/><path d="m288 200h16v16h-16z"/><path d="m288 232h16v16h-16z"/><path d="m288 264h16v16h-16z"/><path d="m176 200h16v16h-16z"/><path d="m176 232h16v16h-16z"/><path d="m176 264h16v16h-16z"/><path d="m104 264c13.255.002 24.002-10.742 24.003-23.997.002-13.255-10.742-24.002-23.997-24.003-10.172-.001-19.24 6.41-22.631 16h-81.375v16h81.376c3.399 9.581 12.458 15.987 22.624 16zm0-32c4.418 0 8 3.582 8 8s-3.582 8-8 8-8-3.582-8-8c.005-4.416 3.584-7.995 8-8z"/><path d="m58.343 165.657c1.5 1.5 3.535 2.343 5.657 2.343h24v-16h-20.687l-29.656-29.657c-1.5-1.5-3.535-2.343-5.657-2.343h-32v16h28.687z"/><path d="m104 152h16v16h-16z"/><path d="m0 184h88v16h-88z"/><path d="m104 184h16v16h-16z"/><path d="m37.657 357.657 29.656-29.657h20.687v-16h-24c-2.122 0-4.157.843-5.657 2.343l-29.656 29.657h-28.687v16h32c2.122 0 4.157-.843 5.657-2.343z"/><path d="m104 312h16v16h-16z"/><path d="m0 280h88v16h-88z"/><path d="m104 280h16v16h-16z"/><path d="m344 28.687-29.657 29.656c-1.5 1.5-2.343 3.535-2.343 5.657v24h16v-20.687l29.657-29.656c1.5-1.5 2.343-3.535 2.343-5.657v-32h-16z"/><path d="m312 104h16v16h-16z"/><path d="m232 0v81.376c-12.497 4.418-19.046 18.131-14.627 30.627 4.418 12.497 18.131 19.046 30.627 14.627 12.497-4.418 19.046-18.131 14.627-30.627-2.416-6.835-7.793-12.211-14.627-14.627v-81.376zm8 112c-4.418 0-8-3.582-8-8s3.582-8 8-8 8 3.582 8 8c-.005 4.416-3.584 7.995-8 8z"/><path d="m280 0h16v88h-16z"/><path d="m280 104h16v16h-16z"/><path d="m120 0v32c0 2.122.843 4.157 2.343 5.657l29.657 29.656v20.687h16v-24c0-2.122-.843-4.157-2.343-5.657l-29.657-29.656v-28.687z"/><path d="m152 104h16v16h-16z"/><path d="m184 0h16v88h-16z"/><path d="m184 104h16v16h-16z"/><path d="m136 451.313 29.657-29.656c1.5-1.5 2.343-3.535 2.343-5.657v-24h-16v20.687l-29.657 29.656c-1.5 1.5-2.343 3.535-2.343 5.657v32h16z"/><path d="m152 360h16v16h-16z"/><path d="m248 480v-81.376c12.497-4.418 19.046-18.131 14.627-30.627-4.418-12.497-18.131-19.046-30.627-14.627-12.497 4.418-19.046 18.131-14.627 30.627 2.416 6.835 7.793 12.211 14.627 14.627v81.376zm-8-112c4.418 0 8 3.582 8 8s-3.582 8-8 8-8-3.582-8-8c.005-4.416 3.584-7.995 8-8z"/><path d="m184 392h16v88h-16z"/><path d="m184 360h16v16h-16z"/><path d="m360 480v-32c0-2.122-.843-4.157-2.343-5.657l-29.657-29.656v-20.687h-16v24c0 2.122.843 4.157 2.343 5.657l29.657 29.656v28.687z"/><path d="m312 360h16v16h-16z"/><path d="m280 392h16v88h-16z"/><path d="m280 360h16v16h-16z"/><path d="m376 216c-13.255-.002-24.002 10.742-24.003 23.997-.002 13.255 10.742 24.002 23.997 24.003 10.172.001 19.24-6.41 22.631-16h81.375v-16h-81.376c-3.399-9.581-12.458-15.987-22.624-16zm0 32c-4.418 0-8-3.582-8-8s3.582-8 8-8 8 3.582 8 8c-.005 4.416-3.584 7.995-8 8z"/><path d="m442.343 122.343-29.656 29.657h-20.687v16h24c2.122 0 4.157-.843 5.657-2.343l29.656-29.657h28.687v-16h-32c-2.122 0-4.157.843-5.657 2.343z"/><path d="m360 152h16v16h-16z"/><path d="m392 184h88v16h-88z"/><path d="m360 184h16v16h-16z"/><path d="m421.657 314.343c-1.5-1.5-3.535-2.343-5.657-2.343h-24v16h20.687l29.656 29.657c1.5 1.5 3.535 2.343 5.657 2.343h32v-16h-28.687z"/><path d="m360 312h16v16h-16z"/><path d="m392 280h88v16h-88z"/><path d="m360 280h16v16h-16z"/><path d="m104 112v24h16v-16h16v-16h-24c-4.418 0-8 3.582-8 8z"/><path d="m104 368c0 4.418 3.582 8 8 8h24v-16h-16v-16h-16z"/><path d="m376 112c0-4.418-3.582-8-8-8h-24v16h16v16h16z"/><path d="m360 360h-16v16h24c4.418 0 8-3.582 8-8v-24h-16z"/></svg>