<svg id="Layer_1" enable-background="new 0 0 512 512" viewBox="0 0 512 512" xmlns="http://www.w3.org/2000/svg"><g clip-rule="evenodd" fill-rule="evenodd"><g><path d="m117.604 348.162c-59.732 0-108.604-48.871-108.604-108.603 0-53.06 38.933-98.723 91.283-107.206-.005-.466-.018-.931-.018-1.397 0-67.354 54.602-121.956 121.957-121.956 40.469 0 76.328 19.717 98.512 50.063 10.528-7.195 23.258-11.405 36.972-11.405 36.238 0 65.615 29.377 65.615 65.614 0 7.253-1.18 14.23-3.352 20.753 47.497 11.577 83.031 54.603 83.031 105.534 0 59.732-48.872 108.603-108.604 108.603z" fill="#64b5f6"/><path d="m192.398 217.703h28.536c3.989 0 7.243-3.255 7.243-7.243v-77.144h14.919c2.536 0 3.848-3.02 2.118-4.874l-35.106-37.614c-1.863-1.995-5.021-1.995-6.884 0l-35.106 37.614c-1.73 1.854-.417 4.874 2.118 4.874h14.918v77.144c.001 3.989 3.255 7.243 7.244 7.243z" fill="#ffda2d"/><path d="m319.602 89.331h-28.536c-3.989 0-7.243 3.255-7.243 7.243v77.144h-14.919c-2.536 0-3.848 3.02-2.118 4.874l35.106 37.614c1.863 1.995 5.021 1.995 6.884 0l35.106-37.614c1.73-1.854.417-4.874-2.118-4.874h-14.918v-77.143c-.001-3.989-3.255-7.244-7.244-7.244z" fill="#fc685b"/><g><path d="m395.568 422.311v-99.898l-279.136 4.193v88.259z" fill="#96abbc"/><path d="m83.057 246.787h345.886c10.889 0 19.798 8.909 19.798 19.798v64.24c0 10.889-8.909 19.798-19.798 19.798h-345.886c-10.889 0-19.798-8.909-19.798-19.798v-64.24c0-10.889 8.909-19.798 19.798-19.798zm0 152.377h345.886c10.889 0 19.798 8.909 19.798 19.798v64.24c0 10.889-8.909 19.798-19.798 19.798h-345.886c-10.889 0-19.798-8.909-19.798-19.798v-64.24c0-10.889 8.909-19.798 19.798-19.798z" fill="#87a0af"/><ellipse cx="200.021" cy="451.082" fill="#72d561" rx="11.729" ry="11.729" transform="matrix(.383 -.924 .924 .383 -293.269 463.255)"/></g></g><path d="m283.803 181.719c4.433 0 8.018-3.58 8.018-7.999v-76.388h27.025v76.387c0 4.419 3.585 7.999 7.971 7.999h3.207l-24.714 26.45-24.667-26.45h3.16zm12.216 39.948c2.405 2.566 5.801 4.037 9.338 4.037 3.49 0 6.886-1.471 9.244-4.037l35.137-37.613c2.971-3.174 3.726-7.796 2.028-11.782-1.745-3.981-5.66-6.551-9.999-6.551h-6.933v-69.148c0-8.405-6.839-15.239-15.234-15.239h-28.534c-8.395 0-15.234 6.834-15.234 15.239v69.148h-6.933c-4.339 0-8.254 2.571-9.999 6.551-1.745 3.985-.943 8.607 2.028 11.782zm-89.377-122.802 24.714 26.454h-3.16c-4.433 0-8.018 3.58-8.018 7.999v76.387h-27.025v-76.387c0-4.419-3.585-7.999-8.018-7.999h-3.16zm-36.41 42.453h6.933v69.143c0 8.404 6.839 15.243 15.234 15.243h28.534c8.395 0 15.234-6.839 15.234-15.243v-69.143h6.933c4.339 0 8.254-2.575 9.999-6.556 1.698-3.976.943-8.603-2.028-11.777l-35.137-37.618c-2.358-2.566-5.754-4.033-9.291-4.033-3.49 0-6.886 1.472-9.244 4.037l-35.137 37.614c-2.972 3.174-3.773 7.801-2.028 11.777 1.744 3.98 5.658 6.556 9.998 6.556zm18.063 309.765c0-6.461 5.282-11.73 11.744-11.73 6.415 0 11.697 5.269 11.697 11.73 0 6.462-5.282 11.73-11.697 11.73-6.461 0-11.744-5.268-11.744-11.73zm-44.145 0c0-6.461 5.235-11.73 11.697-11.73s11.744 5.269 11.744 11.73c0 6.462-5.282 11.73-11.744 11.73s-11.697-5.268-11.697-11.73zm-44.193 0c0-6.461 5.282-11.73 11.744-11.73s11.744 5.269 11.744 11.73c0 6.462-5.282 11.73-11.744 11.73s-11.744-5.268-11.744-11.73zm111.779-152.378c0 6.462-5.282 11.73-11.697 11.73-6.462 0-11.744-5.268-11.744-11.73 0-6.457 5.282-11.73 11.744-11.73 6.415 0 11.697 5.273 11.697 11.73zm-44.146 0c0 6.462-5.282 11.73-11.744 11.73s-11.697-5.268-11.697-11.73c0-6.457 5.235-11.73 11.697-11.73s11.744 5.273 11.744 11.73zm109.61 152.378c0-4.419 3.585-7.999 8.018-7.999h111.402c4.433 0 8.018 3.58 8.018 7.999s-3.584 7.999-8.018 7.999h-111.402c-4.433 0-8.018-3.579-8.018-7.999zm127.438-152.378c0 4.419-3.584 8.004-8.018 8.004h-111.402c-4.433 0-8.018-3.584-8.018-8.004 0-4.419 3.585-7.999 8.018-7.999h111.402c4.434 0 8.018 3.58 8.018 7.999zm-281.193 0c0 6.462-5.282 11.73-11.744 11.73s-11.744-5.268-11.744-11.73c0-6.457 5.282-11.73 11.744-11.73 6.461 0 11.744 5.273 11.744 11.73zm264.12 92.461h-263.13v-32.543h263.13zm53.154 27.798c0-6.509-5.282-11.8-11.791-11.8h-345.856c-6.509 0-11.838 5.292-11.838 11.8v64.238c0 6.509 5.33 11.8 11.838 11.8h345.856c6.509 0 11.791-5.292 11.791-11.8zm-369.485-88.14c0 6.509 5.33 11.8 11.838 11.8h345.856c6.509 0 11.791-5.292 11.791-11.8v-64.238c0-6.504-5.282-11.796-11.791-11.796h-345.856c-6.509 0-11.838 5.292-11.838 11.796zm-54.239-91.263c0 30.761 14.385 59.795 38.25 78.783v-51.758c0-15.328 12.499-27.798 27.827-27.798h345.856c15.329 0 27.827 12.47 27.827 27.798v51.758c23.865-18.988 38.25-48.023 38.25-78.783 0-46.523-31.647-86.721-76.925-97.762-2.17-.528-4.056-1.943-5.094-3.9-1.132-1.957-1.321-4.278-.613-6.4 1.934-5.858 2.924-11.989 2.924-18.225 0-31.77-25.846-57.616-57.588-57.616-11.65 0-22.875 3.462-32.449 10.013-3.584 2.434-8.442 1.604-10.989-1.887-21.413-29.293-55.842-46.782-92.065-46.782-62.823 0-113.949 51.121-113.949 113.954v.769.528c.047 3.962-2.783 7.367-6.697 7.999-48.202 7.81-84.565 50.508-84.565 99.309zm411.933 119.061c12.593 0 23.252-8.423 26.648-19.927 34.288-21.276 55.418-58.932 55.418-99.135 0-26.195-9.056-51.951-25.469-72.515-14.385-18.073-34.005-31.562-55.795-38.566 1.038-4.98 1.604-10.069 1.604-15.206 0-40.59-33.015-73.614-73.623-73.614-12.357 0-24.337 3.047-35.043 8.857-24.574-29.882-61.598-47.517-100.461-47.517-69.898 0-127.108 55.489-129.843 124.735-24.62 5.48-46.928 18.922-63.436 38.316-18.017 21.139-27.921 47.957-27.921 75.51 0 40.203 21.13 77.859 55.371 99.135 3.443 11.504 14.102 19.927 26.695 19.927h25.374v32.543h-25.375c-15.328 0-27.827 12.47-27.827 27.798v64.238c0 15.328 12.499 27.799 27.827 27.799h345.856c15.329 0 27.827-12.47 27.827-27.799v-64.238c0-15.328-12.499-27.798-27.827-27.798h-25.374v-32.543z"/></g></svg>