<svg id="Icons" height="512" viewBox="0 0 60 60" width="512" xmlns="http://www.w3.org/2000/svg"><rect fill="#cfe3ed" height="58" rx="3" width="58" x="1" y="1"/><path d="m53 21v6h-48v-6a2.006 2.006 0 0 1 2-2h44a2.006 2.006 0 0 1 2 2z" fill="#4982c8"/><path d="m5 27h48v32h-48z" fill="#b5cddd"/><path d="m39 42-.7-6.331a3 3 0 0 0 -2.985-2.669h-12.63a3 3 0 0 0 -2.985 2.669l-.7 6.331 1 1h18z" fill="#4982c8"/><path d="m16 54h7v5h-7z" fill="#718593"/><path d="m35 54h7v5h-7z" fill="#718593"/><path d="m44.69 46h-31.38a2.036 2.036 0 0 1 .58-.59l5.11-3.41h20l5.11 3.41a2.036 2.036 0 0 1 .58.59z" fill="#cfe3ed"/><path d="m45 47.07v4.93a2.006 2.006 0 0 1 -2 2h-28a2.006 2.006 0 0 1 -2-2v-4.93a1.97 1.97 0 0 1 .31-1.07h31.38a1.97 1.97 0 0 1 .31 1.07z" fill="#e4f0ff"/><path d="m35 46v3a1 1 0 0 1 -1 1h-10a1 1 0 0 1 -1-1v-3z" fill="#b5cddd"/><path d="m18 46v2a2.006 2.006 0 0 1 -2 2h-3v-2.93a1.97 1.97 0 0 1 .31-1.07z" fill="#fff"/><path d="m45 47.07v2.93h-3a2.006 2.006 0 0 1 -2-2v-2h4.69a1.97 1.97 0 0 1 .31 1.07z" fill="#fff"/><g fill="#373737"><path d="m4 60h52a4 4 0 0 0 4-4v-52a4 4 0 0 0 -4-4h-52a4 4 0 0 0 -4 4v4a1 1 0 0 0 2 0v-4a2 2 0 0 1 2-2h52a2 2 0 0 1 2 2v52a2 2 0 0 1 -2 2h-1v-37a3 3 0 0 0 -3-3h-44a3 3 0 0 0 -3 3v37h-1a2 2 0 0 1 -2-2v-43a1 1 0 0 0 -2 0v43a4 4 0 0 0 4 4zm16.3-17h19.4l3 2h-25.4zm.814-2 .58-5.221a2 2 0 0 1 1.992-1.779h12.628a2 2 0 0 1 1.986 1.779l.583 5.221zm20.886 6h2.991c0 .024.009.046.009.07v1.93h-2a1 1 0 0 1 -1-1zm-17 0h10v2h-10zm-10 .07c0-.024.007-.046.009-.07h2.991v1a1 1 0 0 1 -1 1h-2zm0 3.93h2a3 3 0 0 0 3-3v-1h3v2a2 2 0 0 0 2 2h10a2 2 0 0 0 2-2v-2h3v1a3 3 0 0 0 3 3h2v1a1 1 0 0 1 -1 1h-28a1 1 0 0 1 -1-1zm20 4v3h-10v-3zm2 0h5v3h-5zm-14 0v3h-5v-3zm-15-35h44a1 1 0 0 1 1 1v5h-46v-5a1 1 0 0 1 1-1zm-1 8h46v30h-9v-3a3 3 0 0 0 3-3v-4.93a2.993 2.993 0 0 0 -1.336-2.5l-4.721-3.147-.652-5.868a4 4 0 0 0 -3.977-3.555h-12.628a4 4 0 0 0 -3.977 3.559l-.652 5.868-4.721 3.147a2.993 2.993 0 0 0 -1.336 2.496v4.93a3 3 0 0 0 3 3v3h-9z"/><path d="m25.1 13.674a1 1 0 0 0 1.231 1.576 6.16 6.16 0 0 1 7.33 0 1 1 0 0 0 1.239-1.576 8 8 0 0 0 -9.792 0z"/><path d="m37.135 12.432a1 1 0 0 0 .611-1.792 12.684 12.684 0 0 0 -15.492 0 1 1 0 0 0 1.221 1.585 10.68 10.68 0 0 1 13.05 0 1 1 0 0 0 .61.207z"/><path d="m40 9.4a1 1 0 0 0 .611-1.793 17.4 17.4 0 0 0 -21.22 0 1 1 0 0 0 1.22 1.585 15.4 15.4 0 0 1 18.78 0 .993.993 0 0 0 .609.208z"/><path d="m11 24h38a1 1 0 0 0 0-2h-38a1 1 0 0 0 0 2z"/></g></svg>