<svg height="512" viewBox="0 0 64 64" width="512" xmlns="http://www.w3.org/2000/svg"><g id="_31-Key-card" data-name="31-Key-card"><rect fill="#fc6067" height="42" rx="2" width="58" x="3" y="11"/><path d="m3 17h58v8h-58z" fill="#565d69"/><path d="m39 36h-14.587a8 8 0 1 0 0 6h6.587l2-2 2 2 2-2 2 2 3-3zm-24 5a2 2 0 1 1 2-2 2 2 0 0 1 -2 2z" fill="#e7eaef"/><path d="m49 33v12l6-6z" fill="#fcb860"/><path d="m59 10h-54a3.00328 3.00328 0 0 0 -3 3v38a3.00328 3.00328 0 0 0 3 3h54a3.00328 3.00328 0 0 0 3-3v-38a3.00328 3.00328 0 0 0 -3-3zm-55 8h56v6h-56zm1-6h54a1.00067 1.00067 0 0 1 1 1v3h-56v-3a1.00067 1.00067 0 0 1 1-1zm54 40h-54a1.00067 1.00067 0 0 1 -1-1v-25h56v25a1.00067 1.00067 0 0 1 -1 1zm-19.293-16.707a.99928.99928 0 0 0 -.707-.293h-13.94043a9 9 0 1 0 0 8h5.94043a.99928.99928 0 0 0 .707-.293l1.293-1.29294 1.293 1.293a.99962.99962 0 0 0 1.41406 0l1.29294-1.293 1.293 1.293a.99962.99962 0 0 0 1.41406 0l3-3a.99962.99962 0 0 0 0-1.41406zm-.707 5.29294-1.293-1.293a.99962.99962 0 0 0 -1.41406 0l-1.29294 1.293-1.293-1.293a.99962.99962 0 0 0 -1.41406 0l-1.707 1.70706h-6.17285a1.00074 1.00074 0 0 0 -.92676.624 7 7 0 1 1 0-5.248 1.00074 1.00074 0 0 0 .92676.624h14.17285l2 2zm-24-4.58594a3 3 0 1 0 3 3 3.00328 3.00328 0 0 0 -3-3zm0 4a1 1 0 1 1 1-1 1.00067 1.00067 0 0 1 -1 1zm34.707-7.707a.99991.99991 0 0 0 -1.707.707v12a.99989.99989 0 0 0 1.707.707l6-6a.99962.99962 0 0 0 0-1.41406zm.293 10.29294v-7.17188l3.58594 3.58594z"/></g></svg>