<svg id="Icons" height="512" viewBox="0 0 60 60" width="512" xmlns="http://www.w3.org/2000/svg"><path d="m11.841 50.47a.5.5 0 0 1 -.259-.928l1.918-1.154-3.494 2.012a.5.5 0 0 1 -.513-.857l21.2-13.113-24.2 13.97a.5.5 0 0 1 -.508-.861l3.953-2.376-5.466 3.158a.5.5 0 0 1 -.508-.861l4.871-2.925-5.67 3.274a.5.5 0 0 1 -.512-.859l25.333-15.579-26.144 15.095a.5.5 0 0 1 -.509-.862l11.867-7.148-11.821 6.821a.5.5 0 0 1 -.512-.858l27-16.622-26.587 15.348a.5.5 0 0 1 -.51-.86l18.465-11.228-17.955 10.366a.5.5 0 0 1 -.508-.861l4.728-2.837-4.22 2.434a.5.5 0 0 1 -.509-.86l10.512-6.36-10 5.776a.5.5 0 0 1 -.51-.86l13.44-8.188-12.933 7.465a.5.5 0 0 1 -.512-.859l15.432-9.473-14.92 8.607a.5.5 0 0 1 -.515-.856l19.28-12.069-18.765 10.834a.5.5 0 0 1 -.516-.855l17.036-10.71-16.52 9.537a.5.5 0 0 1 -.513-.858l8.6-5.316-8.087 4.669a.5.5 0 0 1 -.521-.853l15.641-10.058-15.12 8.728a.5.5 0 0 1 -.514-.858l4.918-3.058-4.4 2.542a.5.5 0 0 1 -.525-.851l12.738-8.386-12.217 7.05a.5.5 0 0 1 -.522-.852l7.5-4.851-6.978 4.027a.5.5 0 0 1 -.531-.846l9.092-6.169-8.561 4.942a.5.5 0 0 1 -.522-.852l1.95-1.264-1.428.826a.5.5 0 0 1 -.522-.852l.4-.26a.507.507 0 0 1 -.553-.217.5.5 0 0 1 .142-.68l2.895-1.98-2.362 1.362a.5.5 0 0 1 -.544-.838l3.113-2.257-2.569 1.484a.5.5 0 0 1 -.546-.836l1.152-.843-.606.35a.5.5 0 0 1 -.554-.83l.451-.345a.5.5 0 0 1 -.522-.166.5.5 0 0 1 .014-.649l1.319-1.479a.481.481 0 0 1 -.473-.248.5.5 0 0 1 .183-.683l2.376-1.372a.5.5 0 0 1 .624.766l-1.217 1.364 3.801-2.191a.5.5 0 0 1 .553.83l-.355.27 1.909-1.1a.5.5 0 0 1 .545.836l-1.149.84 2.905-1.676a.5.5 0 0 1 .543.838l-3.115 2.255 5.364-3.093a.5.5 0 0 1 .532.845l-2.893 1.979 4.893-2.824a.5.5 0 0 1 .522.851l-.125.081 1.617-.932a.5.5 0 0 1 .522.852l-1.95 1.264 3.666-2.116a.5.5 0 0 1 .531.846l-9.089 6.167 12.148-7.013a.5.5 0 0 1 .522.852l-7.5 4.851 9.88-5.7a.5.5 0 0 1 .525.85l-12.733 8.378 15.994-9.231a.5.5 0 0 1 .514.857l-4.928 3.063 6.795-3.92a.5.5 0 0 1 .52.853l-15.637 10.056 18.901-10.909a.5.5 0 0 1 .513.858l-8.588 5.308 10.68-6.166a.5.5 0 0 1 .516.855l-17.03 10.706 20.027-11.561a.5.5 0 0 1 .516.856l-19.292 12.073 22.399-12.929a.5.5 0 0 1 .512.858l-15.42 9.473 17.895-10.331a.5.5 0 0 1 .509.859l-13.446 8.188 15.679-9.047a.5.5 0 0 1 .509.86l-10.5 6.354 12.348-7.133a.5.5 0 0 1 .508.861l-4.711 2.828 5.505-3.178a.5.5 0 0 1 .51.86l-18.463 11.227 19.088-11.02a.5.5 0 0 1 .511.858l-27 16.625 27.2-15.7a.5.5 0 0 1 .507.861l-11.833 7.129 11.362-6.559a.5.5 0 0 1 .511.858l-25.346 15.587 24.835-14.338a.5.5 0 0 1 .508.861l-4.841 2.907 4.333-2.5a.5.5 0 0 1 .508.861l-3.987 2.4 3.479-2.009a.5.5 0 0 1 .512.857l-21.2 13.116 20.688-11.949a.5.5 0 0 1 .508.86l-1.9 1.147 1.393-.8a.5.5 0 0 1 .512.859l-14.8 9.128 14.289-8.25a.5.5 0 0 1 .517.855l-19.776 12.531 19.257-11.117a.5.5 0 0 1 .51.859l-4.636 2.838 4.126-2.382a.5.5 0 0 1 .516.856l-13.322 8.412 12.806-7.393a.5.5 0 0 1 .523.852l-15.279 9.966 14.756-8.519a.5.5 0 0 1 .513.858l-1.806 1.121 1.293-.746a.5.5 0 0 1 .526.848l-11.53 7.659 11-6.352a.5.5 0 0 1 .529.848l-9.191 6.182 8.662-5a.5.5 0 0 1 .518.855l-.419.267a.5.5 0 0 1 .431.891l-4.746 3.211 4.22-2.438a.5.5 0 0 1 .542.838l-5.169 3.732 4.627-2.671a.5.5 0 0 1 .557.827l-4.094 3.2 3.537-2.042a.5.5 0 0 1 .558.826l-1.656 1.3 1.1-.633a.5.5 0 0 1 .572.815l-.67.565a.505.505 0 0 1 .572.231.5.5 0 0 1 -.182.682l-4.697 2.7a.5.5 0 0 1 -.572-.814l.607-.513-2.3 1.327a.5.5 0 0 1 -.559-.826l1.655-1.3-3.683 2.126a.5.5 0 0 1 -.558-.827l4.093-3.193-6.966 4.02a.5.5 0 0 1 -.542-.838l5.167-3.725-7.905 4.563a.5.5 0 0 1 -.53-.846l4.755-3.214-7.034 4.06a.5.5 0 0 1 -.518-.854l.2-.124-1.7.978a.5.5 0 0 1 -.53-.847l9.192-6.182-12.178 7.029a.5.5 0 0 1 -.526-.848l11.533-7.661-14.741 8.509a.5.5 0 0 1 -.513-.857l1.79-1.111-3.41 1.968a.5.5 0 0 1 -.523-.851l15.279-9.965-18.738 10.816a.5.5 0 0 1 -.517-.855l13.331-8.418-16.063 9.273a.5.5 0 0 1 -.511-.859l4.636-2.837-6.4 3.7a.5.5 0 0 1 -.518-.854l19.766-12.534-23.186 13.384a.5.5 0 0 1 -.513-.858l14.8-9.129-17.297 9.987a.489.489 0 0 1 -.249.07z" fill="#4d5b9e"/><path d="m3.486 22.5a.5.5 0 0 1 -.312-.892l2.217-1.759-4.111 2.373a.5.5 0 0 1 -.549-.834l.887-.66-.338.194a.5.5 0 0 1 -.628-.761l1.918-2.209-1.29.748a.5.5 0 0 1 -.738-.542l.307-1.371a.49.49 0 0 1 -.249-.219.5.5 0 0 1 .183-.682l.5-.289a.5.5 0 0 1 .738.542l-.251 1.123 2.884-1.662a.5.5 0 0 1 .627.76l-1.918 2.205 5.148-2.971a.5.5 0 0 1 .549.834l-.88.655 2.584-1.491a.5.5 0 0 1 .561.824l-2.218 1.76 4.478-2.585a.5.5 0 0 1 .569.818l-2.632 2.176 5.19-3a.5.5 0 0 1 .549.833l-1.184.885 2.976-1.719a.5.5 0 0 1 .572.815l-2.766 2.33 5.451-3.147a.5.5 0 0 1 .557.827l-1.958 1.525 4.075-2.353a.5.5 0 0 1 .592.8l-3.205 3 6.583-3.8a.5.5 0 0 1 .589.8l-3.183 2.954 6.5-3.754a.5.5 0 0 1 .576.812l-2.9 2.5 5.735-3.311a.5.5 0 0 1 .58.81l-2.976 2.6 5.906-3.409a.5.5 0 0 1 .584.805l-3.091 2.776 6.207-3.583a.5.5 0 0 1 .586.8l-3.13 2.846 6.324-3.651a.5.5 0 0 1 .569.818l-2.671 2.22 5.266-3.04a.5.5 0 0 1 .591.8l-3.193 2.973 6.535-3.774a.5.5 0 0 1 .589.8l-3.172 2.927 6.468-3.734a.5.5 0 0 1 .552.831l-1.516 1.149 1.447-.834a.5.5 0 0 1 .584.8l-1.817 1.631 1.241-.715a.5.5 0 0 1 .662.715l-.882 1.284.23-.133a.5.5 0 1 1 .5.865l-2.144 1.241a.5.5 0 0 1 -.662-.715l.881-1.283-3.464 2a.5.5 0 0 1 -.584-.8l1.815-1.631-4.223 2.437a.5.5 0 0 1 -.551-.831l1.516-1.15-3.433 1.982a.5.5 0 0 1 -.589-.8l3.174-2.931-6.469 3.732a.5.5 0 0 1 -.591-.8l3.192-2.972-6.535 3.773a.5.5 0 0 1 -.569-.817l2.671-2.221-5.266 3.04a.5.5 0 0 1 -.586-.8l3.13-2.845-6.323 3.65a.5.5 0 0 1 -.584-.8l3.091-2.777-6.208 3.584a.5.5 0 0 1 -.579-.81l2.975-2.6-5.906 3.405a.5.5 0 0 1 -.576-.812l2.9-2.5-5.736 3.311a.5.5 0 0 1 -.59-.8l3.182-2.952-6.5 3.754a.5.5 0 0 1 -.592-.8l3.2-3-6.583 3.8a.5.5 0 0 1 -.557-.827l1.958-1.525-4.069 2.358a.5.5 0 0 1 -.572-.816l2.767-2.33-5.455 3.148a.5.5 0 0 1 -.549-.833l1.184-.885-2.972 1.719a.5.5 0 0 1 -.569-.819l2.631-2.175-5.19 3a.488.488 0 0 1 -.249.064z" fill="#354368"/><g fill="#6679bf"><path d="m27.868 38.475a.5.5 0 0 1 -.251-.933l10.244-5.915a.5.5 0 0 1 .574.814l-2.73 2.313 5.416-3.127a.5.5 0 0 1 .568.818l-2.543 2.1 5.061-2.921a.5.5 0 0 1 .544.837l-.439.319 1.241-.716a.5.5 0 0 1 .58.809l-2.41 2.119 3.034-1.752a.5.5 0 0 1 .577.811l-.958.829 1.227-.708a.5.5 0 0 1 .6.787l-1.338 1.329a.5.5 0 0 1 -.008.861l-2.113 1.221a.5.5 0 0 1 -.6-.787l.625-.62-2.448 1.412a.5.5 0 0 1 -.577-.811l.958-.829-2.848 1.645a.5.5 0 0 1 -.581-.809l2.412-2.119-5.085 2.938a.5.5 0 0 1 -.544-.837l.438-.32-2.01 1.161a.5.5 0 0 1 -.568-.819l2.542-2.1-5.069 2.925a.5.5 0 0 1 -.574-.814l2.73-2.313-5.428 3.134a.489.489 0 0 1 -.249.068z"/><path d="m20.051 35.615a.5.5 0 0 1 -.326-.879l1.976-1.7-1.873 1.084a.5.5 0 0 1 -.58-.808l1.65-1.445-2.615 1.509a.5.5 0 1 1 -.5-.865l7.029-4.058a.5.5 0 0 1 .579.809l-1.651 1.445 2.108-1.216a.5.5 0 0 1 .575.812l-1.976 1.697 2.237-1.291a.5.5 0 1 1 .5.865l-6.884 3.974a.488.488 0 0 1 -.249.067z"/><path d="m20.364 43.424a.5.5 0 0 1 -.285-.911l5.56-3.841-7.6 4.386a.5.5 0 0 1 -.537-.842l5.856-4.116-7.181 4.145a.5.5 0 0 1 -.529-.848l2.245-1.505-2.772 1.6a.5.5 0 0 1 -.632-.756l1.55-1.828-2.164 1.249a.5.5 0 0 1 -.659-.72l1.291-1.829-1.569.906a.5.5 0 0 1 -.646-.128.5.5 0 0 1 .042-.658l.6-.6-.384.221a.5.5 0 0 1 -.535-.844l2.344-1.627-2.021 1.166a.5.5 0 0 1 -.551-.831l4.256-3.223-3.614 2.086a.5.5 0 0 1 -.554-.829l2.474-1.9-1.306.754a.5.5 0 0 1 -.574-.814l1.782-1.517a.5.5 0 0 1 -.042-.887l3.407-1.967a.5.5 0 0 1 .574.813l-.895.762 3.177-1.834a.5.5 0 0 1 .554.829l-2.477 1.9 3.942-2.276a.5.5 0 0 1 .552.831l-4.255 3.222 5.454-3.148a.5.5 0 0 1 .535.843l-8.343 5.793a.5.5 0 0 1 -.123.5l-.6.6.269-.156a.5.5 0 0 1 .658.721l-1.29 1.828 2.684-1.55a.5.5 0 0 1 .632.756l-1.55 1.828 13.1-7.561a.5.5 0 0 1 .529.848l-2.245 1.506 4.079-2.354a.5.5 0 0 1 .537.842l-5.854 4.115 8.587-4.957a.5.5 0 0 1 .534.844l-9.334 6.447a.515.515 0 0 1 .08.1.5.5 0 0 1 -.184.683l-6.326 3.652a.489.489 0 0 1 -.253.081z"/></g><path d="m56.29 9.7c-16.89-.283-33.83-.047-50.735-.108-7.239.069-4.942 8.541-5.279 13.346v22.287c-.551 6.065 5.969 5.244 10.1 5.182h44.341a5.122 5.122 0 0 0 5.007-6.2v-10.196c0-6.686.166-13.4 0-20.081a4.327 4.327 0 0 0 -3.434-4.23zm-54.6 6.719h56.586v5.056h-56.552c.007-1.687-.009-3.366-.034-5.056zm.034-2.607c.049-2.92 2.776-3.724 5.238-3.4h32.371c5.073 0 10.166-.134 15.238 0 2.776.028 4.03 2.691 3.705 5.174h-56.588c.002-.596.012-1.186.036-1.774zm56.552 31.9c-.01 1.826-.9 3.8-2.993 3.885h-46.657c-5.933.7-7.352-1.47-6.9-7.132q0-9.967 0-19.936h56.55c-.008 7.724.037 15.452 0 23.179z" fill="#262626"/><path d="m45.941 31.851c-5.878-.519-11.933 0-17.865-.177-2.708-5.974-11.222-6.634-15.135-1.442-6.873 10.547 9.38 18.7 14.96 8.1 5.43.02 10.906.234 16.326-.007 1.877-.083 2.911-1.424 4.144-2.65 1.101-1.333-1.406-3.175-2.43-3.824zm-1.047 5.823c-5.7.011-11.45-.008-17.17 0-.278 0-.89.14-1.021.443-3.062 7.629-13.961 4.65-13.975-3.138-.092-8.442 10.732-10.456 13.972-2.785.064.15.29.132.42.132h16.428a2.384 2.384 0 0 1 1.794.543c.676.555 2.407 1.9 1.707 2.875-.561.556-1.349 1.725-2.155 1.93z" fill="#262626"/><path d="m19.135 32.718c-2.08-.74-4.9 1.43-3.512 3.6 2.445 3.231 7.799-1.665 3.512-3.6zm-.182 3.412a1.435 1.435 0 0 1 -.341.346c-1.5.575-2.527-1.884-1.429-2.855.613-.542 1.432-.077 1.8.544a1.865 1.865 0 0 1 -.03 1.965z" fill="#262626"/></svg>